<svg id="RewindXD" xmlns="http://www.w3.org/2000/svg" width="421" height="121" viewBox="0 0 421 121">
  <text id="R_WIND" data-name="R  WIND" transform="translate(12 93)" fill="#090808" font-size="98" font-family="Rockwell-BoldItalic, Rockwell" font-weight="700" font-style="italic"><tspan x="0" y="0" xml:space="preserve">R  WIND</tspan></text>
  <path id="Icon_awesome-arrow-circle-left" data-name="Icon awesome-arrow-circle-left" d="M31.575,65.983C14.443,65.983.563,51.342.563,33.273S14.443.563,31.575.563,62.587,15.2,62.587,33.273,48.706,65.983,31.575,65.983Zm3.614-18.94-9.441-9.549H48.581a3.079,3.079,0,0,0,3-3.166v-2.11a3.079,3.079,0,0,0-3-3.166H25.747L35.189,19.5a3.292,3.292,0,0,0,.05-4.524l-1.376-1.438a2.881,2.881,0,0,0-4.239,0L13.03,31.03a3.275,3.275,0,0,0,0,4.471L29.624,53a2.881,2.881,0,0,0,4.239,0l1.376-1.438A3.292,3.292,0,0,0,35.189,47.043Z" transform="translate(79.438 26.759)" fill="#d41212" stroke="#000" stroke-width="1"/>
  <text id="SEEING_THE_WORLD_BACKWARDS" data-name="SEEING THE WORLD BACKWARDS" transform="translate(0 115)" fill="#090808" font-size="26" font-family="Rockwell"><tspan x="0" y="0">SEEING THE WORLD BACKWARDS</tspan></text>
</svg>
