<svg id="RewindLogo" xmlns="http://www.w3.org/2000/svg" width="421" height="230" viewBox="0 0 421 230">
  <text id="R_WIND_" data-name="R  WIND
" transform="translate(12 93)" fill="#090808" font-size="98" font-family="Rockwell-BoldItalic, Rockwell" font-weight="700" font-style="italic"><tspan x="0" y="0" xml:space="preserve">R  WIND</tspan><tspan x="0" y="115"></tspan></text>
  <path id="Icon_awesome-arrow-circle-left" data-name="Icon awesome-arrow-circle-left" d="M28.292,60.92C12.974,60.92.563,47.412.563,30.741S12.974.563,28.292.563,56.021,14.07,56.021,30.741,43.61,60.92,28.292,60.92Zm3.231-17.474-8.442-8.81H43.5a2.8,2.8,0,0,0,2.683-2.921V29.768A2.8,2.8,0,0,0,43.5,26.847H23.082l8.442-8.81a3.108,3.108,0,0,0,.045-4.174l-1.23-1.326a2.522,2.522,0,0,0-3.79,0L11.71,28.672a3.093,3.093,0,0,0,0,4.125L26.548,48.945a2.522,2.522,0,0,0,3.79,0l1.23-1.326A3.108,3.108,0,0,0,31.523,43.445Z" transform="translate(82.438 27.438)" fill="#d41212"/>
  <text id="SEEING_THE_WORLD_BACKWARDS" data-name="SEEING THE WORLD BACKWARDS" transform="translate(0 119)" fill="#090808" font-size="26" font-family="Rockwell"><tspan x="0" y="0">SEEING THE WORLD BACKWARDS</tspan></text>
</svg>
